HIERARCHY
ROOT Hips
{
 OFFSET 0.000000 0.000000 0.000000
 CHANNELS 6 Xposition Yposition Zposition Yrotation Xrotation Zrotation
 JOINT Chest
 {
  OFFSET 0.000000 9.876139 0.000104
  CHANNELS 3 Yrotation Xrotation Zrotation
  JOINT Chest2
  {
   OFFSET 0.000000 10.876137 -0.000189
   CHANNELS 3 Yrotation Xrotation Zrotation
   JOINT Chest3
   {
    OFFSET 0.000000 9.827065 0.000000
    CHANNELS 3 Yrotation Xrotation Zrotation
    JOINT Chest4
    {
     OFFSET 0.000000 9.827065 0.000000
     CHANNELS 3 Yrotation Xrotation Zrotation
     JOINT Neck
     {
      OFFSET 0.000000 13.837564 0.000000
      CHANNELS 3 Yrotation Xrotation Zrotation
      JOINT Head
      {
       OFFSET 0.000000 9.147059 -0.000448
       CHANNELS 3 Yrotation Xrotation Zrotation
       End Site
       {
        OFFSET 0.000000 17.513050 -0.000234
       }
      }
     }
     JOINT RightCollar
     {
      OFFSET -3.007721 7.720841 0.000000
      CHANNELS 3 Yrotation Xrotation Zrotation
      JOINT RightShoulder
      {
       OFFSET -14.032560 0.000000 0.000000
       CHANNELS 3 Yrotation Xrotation Zrotation
       JOINT RightElbow
       {
        OFFSET -30.066962 0.000000 0.000000
        CHANNELS 3 Yrotation Xrotation Zrotation
        JOINT RightWrist
        {
         OFFSET -24.575761 0.000000 0.000000
         CHANNELS 3 Yrotation Xrotation Zrotation
         JOINT Prop1
         {
          OFFSET -3.508170 -1.002334 -2.004669
          CHANNELS 3 Yrotation Xrotation Zrotation
          End Site
          {
           OFFSET -75.170729 -33.091210 23.052389
          }
         }
         End Site
         {
          OFFSET -18.342718 0.000000 0.000000
         }
        }
       }
      }
     }
     JOINT LeftCollar
     {
      OFFSET 3.007721 7.720841 0.000000
      CHANNELS 3 Yrotation Xrotation Zrotation
      JOINT LeftShoulder
      {
       OFFSET 14.032560 0.000000 0.000000
       CHANNELS 3 Yrotation Xrotation Zrotation
       JOINT LeftElbow
       {
        OFFSET 30.066962 0.000000 0.000000
        CHANNELS 3 Yrotation Xrotation Zrotation
        JOINT LeftWrist
        {
         OFFSET 24.575761 0.000000 0.000000
         CHANNELS 3 Yrotation Xrotation Zrotation
         End Site
         {
          OFFSET 18.342718 0.000000 0.000000
         }
        }
       }
      }
     }
    }
   }
  }
 }
 JOINT RightHip
 {
  OFFSET -8.019680 -0.000509 -0.000052
  CHANNELS 3 Yrotation Xrotation Zrotation
  JOINT RightKnee
  {
   OFFSET 0.000000 -41.754945 0.000049
   CHANNELS 3 Yrotation Xrotation Zrotation
   JOINT RightAnkle
   {
    OFFSET 0.000000 -40.737371 0.000083
    CHANNELS 3 Yrotation Xrotation Zrotation
    JOINT RightToe
    {
     OFFSET 0.000000 -6.498123 14.692914
     CHANNELS 3 Yrotation Xrotation Zrotation
     End Site
     {
      OFFSET 0.000000 -1.503208 6.410318
     }
    }
   }
  }
 }
 JOINT LeftHip
 {
  OFFSET 8.019680 -0.000509 -0.000052
  CHANNELS 3 Yrotation Xrotation Zrotation
  JOINT LeftKnee
  {
   OFFSET 0.000000 -41.754945 0.000049
   CHANNELS 3 Yrotation Xrotation Zrotation
   JOINT LeftAnkle
   {
    OFFSET 0.000000 -40.737371 0.000083
    CHANNELS 3 Yrotation Xrotation Zrotation
    JOINT LeftToe
    {
     OFFSET 0.000000 -6.498123 14.692914
     CHANNELS 3 Yrotation Xrotation Zrotation
     End Site
     {
      OFFSET 0.000000 -1.503208 6.410318
     }
    }
   }
  }
 }
}
MOTION
Frames: 12
Frame Time: 0.016667
0.000000 88.808225 0.000000 0.000000 -5.826342 0.000000 0.000000 11.116423 0.000000 0.000000 -5.290081 0.000000 0.000000 0.000000 0.000000 0.000000 0.000000 0.000000 0.000000 12.665069 0.000000 0.000000 0.575450 0.000000 0.000000 0.000000 0.000000 0.000000 0.000000 0.000000 2.337306 0.000000 0.000000 -2.337306 0.000000 0.000000 0.000000 0.000000 0.000000 0.000000 0.000000 0.000000 0.000000 0.000000 0.000000 -2.337306 0.000000 0.000000 2.337306 0.000000 0.000000 0.000000 8.578828 0.000000 0.000000 1.905768 0.000000 0.000000 -4.658254 0.000000 0.000000 0.000000 0.000000 0.000000 8.578828 0.000000 0.000000 1.905768 0.000000 0.000000 -4.658254 0.000000 0.000000 0.000000 0.000000
-13.786914 80.357911 32.303611 -143.295900 -11.744541 -0.419274 -0.635489 13.854202 2.774338 -0.365713 6.150771 1.239326 -0.365713 6.150771 1.239326 -0.286537 4.612362 0.932293 -16.573431 12.590032 5.107793 -33.315972 -9.466549 16.012166 0.710518 5.392548 0.600864 -35.349248 -61.633873 76.649830 24.099995 -2.545205 -1.456473 -2.780358 8.229883 -24.137651 -13.916796 5.585136 -81.871486 3.392352 -3.315641 -17.298452 12.844795 -5.722543 -72.386148 -15.834136 13.080341 0.978830 -1.500241 -1.066901 -1.787870 -13.711905 -30.864458 -17.446197 -14.479687 40.357244 -7.878840 14.039411 8.332028 -1.617185 0.007658 0.005661 0.070396 34.992945 0.339482 28.326496 -36.384543 32.512621 -15.147245 -0.160022 -32.393544 0.173813 -0.007695 0.001819 -0.011044
-13.795131 80.364033 32.296418 -143.243965 -11.677272 -0.432693 -0.661204 13.805412 2.751622 -0.378047 6.129245 1.227788 -0.378047 6.129245 1.227788 -0.295621 4.596199 0.923765 -16.573598 12.620143 5.112338 -33.309367 -9.410951 16.010815 0.680724 5.450090 0.618205 -35.583411 -61.660401 76.772108 24.060847 -2.407454 -1.370912 -2.783254 8.222666 -24.110671 -13.884127 5.558039 -81.861866 3.336787 -3.285123 -17.261337 12.843312 -5.719000 -72.390412 -15.912486 13.114898 0.968471 -1.487169 -1.063243 -1.805850 -13.774023 -30.894157 -17.412491 -14.425523 40.343333 -7.840880 14.051935 8.313297 -1.613079 0.009948 0.009324 0.056184 34.929656 0.311719 28.291438 -36.361965 32.480352 -15.120503 -0.181031 -32.386529 0.173876 -0.003068 0.005318 -0.007178
-13.803142 80.367985 32.285362 -143.229143 -11.628419 -0.451348 -0.676973 13.755692 2.722291 -0.384107 6.108841 1.216225 -0.384107 6.108841 1.216225 -0.300006 4.580891 0.915156 -16.563011 12.668931 5.116578 -33.277417 -9.325033 15.999398 0.610214 5.407096 0.632944 -35.512067 -61.590111 76.599012 23.993537 -2.387705 -1.308245 -2.795262 8.258122 -24.100463 -13.833263 5.542679 -81.849681 3.266164 -3.222088 -17.218246 12.853383 -5.738793 -72.410288 -15.977597 13.164502 0.962305 -1.482029 -1.059777 -1.825571 -13.789466 -30.911304 -17.375824 -14.421038 40.325402 -7.838542 13.997525 8.321999 -1.599059 0.007581 0.002402 0.037695 34.898704 0.302101 28.275232 -36.298745 32.450496 -15.074833 -0.171089 -32.372659 0.144382 -0.000266 0.006175 -0.002828
-13.813955 80.377505 32.272878 -143.252722 -11.640328 -0.480752 -0.674261 13.732104 2.695397 -0.379865 6.100120 1.208610 -0.379865 6.100120 1.208610 -0.296734 4.574363 0.909404 -16.548953 12.730352 5.122759 -33.236197 -9.216788 15.986391 0.534737 5.338062 0.654572 -35.286917 -61.480605 76.361391 23.926368 -2.344474 -1.379654 -2.817009 8.270710 -24.079003 -13.785641 5.505046 -81.919111 3.212782 -3.172861 -17.183084 12.782375 -5.745366 -72.381734 -16.004782 13.164507 0.942974 -1.491159 -1.066204 -1.834979 -13.786892 -30.859954 -17.328208 -14.446302 40.290683 -7.862758 14.072981 8.317981 -1.577121 0.004484 0.003892 0.025553 34.926009 0.336233 28.301610 -36.254493 32.409890 -15.014916 -0.146465 -32.353934 0.112497 -0.007580 0.003437 -0.002461
-13.822148 80.392604 32.260372 -143.231907 -11.649105 -0.519089 -0.684942 13.708025 2.676445 -0.383514 6.090631 1.201356 -0.383514 6.090631 1.201356 -0.299378 4.567243 0.904002 -16.537958 12.797302 5.135395 -33.201446 -9.095596 15.984498 0.485100 5.289198 0.690436 -35.199170 -61.403368 76.296501 23.837844 -2.176912 -1.505650 -2.807118 8.241745 -24.091729 -13.756990 5.476076 -81.964565 3.183315 -3.173919 -17.144313 12.714387 -5.705312 -72.354296 -16.037433 13.168906 0.928601 -1.489494 -1.070945 -1.830778 -13.796264 -30.802060 -17.296267 -14.500555 40.256851 -7.885808 14.130991 8.319599 -1.555034 0.003127 -0.000652 0.013324 34.920308 0.353785 28.330075 -36.232331 32.369626 -14.960201 -0.150032 -32.333927 0.091034 -0.007003 0.001062 -0.000111
-13.822639 80.403338 32.254523 -143.237356 -11.559081 -0.565841 -0.692071 13.642798 2.671226 -0.385176 6.059660 1.197337 -0.385176 6.059660 1.197337 -0.300525 4.544014 0.900996 -16.524995 12.860657 5.149554 -33.164641 -8.980917 15.985974 0.455603 5.280589 0.690375 -35.198515 -61.328200 76.282278 23.781788 -2.057237 -1.588910 -2.783718 8.230579 -24.102655 -13.757562 5.482247 -81.998460 3.180700 -3.169952 -17.120359 12.716309 -5.679674 -72.362289 -16.065450 13.211193 0.916723 -1.488532 -1.060526 -1.810104 -13.810300 -30.834654 -17.212062 -14.487647 40.229095 -7.863820 14.063294 8.322511 -1.542107 0.002583 -0.002979 -0.001595 34.927420 0.270841 28.316900 -36.194983 32.352858 -14.917614 -0.141260 -32.317458 0.055515 -0.002694 -0.002626 0.004474
-13.817948 80.407160 32.253099 -143.253747 -11.429700 -0.606372 -0.700525 13.558632 2.666880 -0.387556 6.019588 1.195514 -0.387556 6.019588 1.195514 -0.302214 4.513956 0.899639 -16.518972 12.918911 5.163074 -33.141961 -8.873601 15.990188 0.420011 5.308984 0.663019 -35.299627 -61.243271 76.348135 23.787743 -2.027503 -1.596302 -2.806445 8.290418 -24.089627 -13.742260 5.486895 -82.056316 3.176701 -3.134345 -17.105830 12.780340 -5.699808 -72.393464 -16.085343 13.296155 0.907103 -1.484465 -1.061541 -1.803973 -13.822089 -30.910617 -17.122030 -14.439728 40.211814 -7.819023 13.960541 8.320941 -1.529545 -0.000243 -0.001920 -0.016252 34.945493 0.155666 28.272669 -36.170222 32.334438 -14.868010 -0.138204 -32.309170 0.022509 -0.000721 0.003121 0.007451
-13.821882 80.411205 32.250333 -143.252838 -11.335796 -0.625562 -0.714356 13.499014 2.651712 -0.393720 5.992330 1.190943 -0.393720 5.992330 1.190943 -0.306737 4.493503 0.896264 -16.518766 12.965424 5.186193 -33.136714 -8.782541 16.017637 0.377079 5.338598 0.650607 -35.521507 -61.200956 76.543414 23.788024 -1.846762 -1.591134 -2.809381 8.250904 -24.024623 -13.733892 5.487854 -82.063495 3.148000 -3.100289 -17.084984 12.842591 -5.739042 -72.425395 -16.106364 13.345463 0.890859 -1.478181 -1.054984 -1.800431 -13.825380 -30.964143 -17.087695 -14.404364 40.207350 -7.769282 13.907097 8.313622 -1.517550 -0.001264 -0.000706 -0.027230 34.935374 0.108747 28.217165 -36.135319 32.301103 -14.808157 -0.120084 -32.301933 -0.004949 -0.003072 0.011975 0.007661
-13.828962 80.416083 32.247712 -143.282009 -11.231979 -0.644811 -0.723470 13.440302 2.643391 -0.397493 5.966638 1.189510 -0.397493 5.966638 1.189510 -0.309502 4.474228 0.895218 -16.513715 13.003794 5.209536 -33.124823 -8.707425 16.046553 0.352073 5.297999 0.641278 -35.764258 -61.166983 76.705496 23.769317 -1.648676 -1.490730 -2.783311 8.222383 -23.960723 -13.756871 5.506420 -82.027734 3.128863 -3.085772 -17.078376 12.834623 -5.740249 -72.437771 -16.123655 13.322957 0.875275 -1.477488 -1.046552 -1.791940 -13.804672 -31.037242 -17.056442 -14.394945 40.209081 -7.727601 13.819487 8.323763 -1.509521 -0.003133 -0.007498 -0.039353 34.948885 0.059752 28.160319 -36.109766 32.258996 -14.753139 -0.071428 -32.291275 -0.040823 -0.003760 0.018131 0.007690
-13.835679 80.419274 32.248225 -143.318962 -11.130943 -0.664332 -0.723913 13.389685 2.638997 -0.398133 5.942201 1.189248 -0.398133 5.942201 1.189248 -0.309933 4.455899 0.895018 -16.512405 13.038256 5.236697 -33.122279 -8.636994 16.084907 0.320460 5.269130 0.627531 -35.904661 -61.138125 76.749871 23.757121 -1.605721 -1.331324 -2.754829 8.265411 -23.958019 -13.784774 5.528570 -81.961574 3.100173 -3.071060 -17.067487 12.761482 -5.721990 -72.448413 -16.140493 13.271794 0.876626 -1.477733 -1.038616 -1.793473 -13.797710 -31.110251 -17.015146 -14.398801 40.204594 -7.700250 13.826203 8.320601 -1.504682 -0.002864 -0.004171 -0.044530 34.984532 -0.002787 28.113424 -36.077546 32.231924 -14.702523 -0.086506 -32.290391 -0.049348 -0.007508 0.025062 0.007580
-13.837846 80.424917 32.244105 -143.336495 -11.103931 -0.686982 -0.729510 13.368790 2.643708 -0.401963 5.932065 1.190100 -0.401963 5.932065 1.190100 -0.312792 4.448289 0.895690 -16.515340 13.071234 5.263156 -33.127758 -8.568232 16.123789 0.289796 5.300064 0.603009 -35.822662 -61.109163 76.660780 23.747805 -1.614241 -1.319785 -2.716704 8.251311 -23.983851 -13.802884 5.537742 -81.914699 3.054661 -3.040353 -17.062984 12.686076 -5.717010 -72.462298 -16.151400 13.241595 0.882183 -1.472161 -1.024210 -1.804064 -13.817857 -31.116338 -16.983903 -14.422863 40.194385 -7.703069 13.881971 8.318597 -1.492817 -0.002299 -0.003594 -0.048714 34.999808 -0.011896 28.112667 -36.058865 32.207741 -14.663093 -0.038666 -32.275652 -0.099213 -0.001309 0.024047 0.014246
